<?xml version="1.0" encoding="UTF-8"?>
<svg width="180px" height="366px" viewBox="0 0 180 366" version="1.1" xmlns="http://www.w3.org/2000/svg" xmlns:xlink="http://www.w3.org/1999/xlink">
    <title>mongolfiera</title>
    <g id="Page-1" stroke="none" stroke-width="1" fill="none" fill-rule="evenodd">
        <path d="M90,3 C138.048773,3 177,41.9512268 177,90 C177,109.08248 170.856354,126.730034 160.439123,141.072604 L160.48459,141.071548 L120.142796,195.071548 L60.8640701,195.071548 L19.4845899,141.071548 L19.5608772,141.072604 C9.14364552,126.730034 3,109.08248 3,90 C3,41.9512268 41.9512268,3 90,3 Z" id="Combined-Shape" stroke="#000501" stroke-width="6" fill="#FFFFFF"></path>
        <rect id="Rectangle" fill="#000000" transform="translate(90.500000, 127.000000) rotate(90.000000) translate(-90.500000, -127.000000) " x="-30.5" y="123.5" width="242" height="7"></rect>
        <polygon id="Path" stroke="#000501" stroke-width="6" points="90 255.274262 60.4445421 195.071548 90 195.071548"></polygon>
        <polygon id="Path" stroke="#000501" stroke-width="6" transform="translate(106.222271, 225.172905) scale(-1, 1) translate(-106.222271, -225.172905) " points="121 255.274262 91.4445421 195.071548 121 195.071548"></polygon>
        <path d="M14.8045711,87.555712 L42.6362137,87.555712 C47.1605939,68.7900911 51.5200242,54.9321226 55.7145046,45.9818065 C59.908985,37.0314904 67.6888503,24.9862426 79.0541005,9.84606323 C63.433847,13.2222928 49.6892106,21.0680213 37.8201914,33.3832487 C25.9511721,45.6984761 18.2792987,63.7559639 14.8045711,87.555712 Z" id="Path-4" fill="#4FC1EA"></path>
        <path d="M14.8045711,99.0357738 L43.1462083,99.0357738 L57.3664243,154.511862 L74.3057215,193.006219 L61.6653317,193.006219 C43.2216117,165.738394 31.3718768,146.834772 26.1161267,136.295353 C20.8603767,125.755935 17.0898582,113.336075 14.8045711,99.0357738 Z" id="Path-5" fill="#4FC1EA"></path>
        <path d="M98.3466712,190.425095 L104.12127,190.425095 L119.532363,162.508898 L130.328584,127.481258 L132.829605,97.4476492 L119.532363,97.4476492 C117.121968,101.342375 114.394283,105.000451 111.349308,108.421879 C108.304334,111.843306 103.475257,116.676239 96.8620796,122.920678 L96.8620796,190.425095 L98.3466712,190.425095 Z" id="Path-6" fill="#4FC1EA"></path>
        <polygon id="Path-7" fill="#4FC1EA" points="99.689746 68.7197334 99.689746 15.915266 122.77301 40.3398243 134.429012 78.7816688 132.829605 90.5 117.059379 90 99.689746 70.0992999"></polygon>
        <path d="M90,4.14600343 C62.1149615,22.0743994 47.5319048,50.7267722 46.2508298,90.1031218 C44.9697549,129.479471 54.646156,164.493765 75.2800333,195.146003 L105.2943,195.146003 C124.608845,160.301276 134.266117,125.286982 134.266117,90.1031218 C134.266117,54.9192615 119.510745,26.2668887 90,4.14600343 Z" id="Path-3" stroke="#000000" stroke-width="6"></path>
        <rect id="Rectangle" fill="#000000" x="5" y="87" width="169" height="7"></rect>
        <path d="M115.237379,75.9768323 C112.033711,72.7731643 107.848413,71.1567001 103.654203,71.1352698 C99.4600592,71.1138398 95.2584087,72.6874033 92.0219234,75.8582616 C91.2131972,76.6505891 90.5029491,77.5052107 89.8914542,78.4069531 C89.2964513,77.4975607 88.5997711,76.6352971 87.8011204,75.8366464 C84.6419962,72.6775222 80.4875469,71.1138875 76.3263194,71.1352702 C72.1493109,71.156734 67.9654431,72.7740098 64.7626206,75.9768323 C61.5597981,79.1796548 59.9425223,83.3635225 59.9210585,87.5405311 C59.8996758,91.7017586 61.4633105,95.8562079 64.6224348,99.0153321 C64.959429,99.3523264 65.3077067,99.6712467 66.1104883,100.435589 C66.2622009,100.632114 66.4282292,100.821127 66.6084427,101.00134 L85.748646,120.141543 C86.9347874,121.327685 88.5087047,121.864874 90.2621839,121.840917 C91.7093075,121.812127 93.1473271,121.24557 94.251354,120.141543 L114.334528,99.9718036 C114.692293,99.6712467 115.040571,99.3523264 115.377565,99.0153321 C118.536689,95.8562079 120.100324,91.7017586 120.078941,87.5405311 C120.057478,83.3635225 118.440202,79.1796548 115.237379,75.9768323 Z" id="Combined-Shape" stroke="#020202" stroke-width="6" fill="#FFFFFF"></path>
        <path d="M88.8095736,77.0946906 C94.5322144,71.9165065 103.653317,72.3570743 109.511119,78.2148763 C115.54378,84.2475381 115.830964,93.7412318 110.152561,99.4196348 C109.996864,99.5753318 109.838299,99.7265438 109.676003,99.8728586 C109.582337,99.9819861 109.483816,100.08838 109.380439,100.191757 L109.380439,100.191757 L93.4137344,116.158461 C92.1486598,117.423536 90.4317905,117.961458 88.7825009,117.772227 C87.1336806,117.9614 85.4169282,117.423468 84.1519219,116.158461 L68.1852177,100.191757 C68.0818406,100.08838 67.9833191,99.9819861 67.8896531,99.8728586 C67.7273577,99.7265438 67.5687923,99.5753318 67.4130953,99.4196348 C61.7346923,93.7412318 62.0218758,84.2475381 68.0545376,78.2148763 C73.9216333,72.3477806 83.0623923,71.9151222 88.7832949,77.1193795 Z" id="Combined-Shape" fill="#FF5254"></path>
        <rect id="Rectangle-Copy-3" stroke="#FFFFFF" stroke-width="6" fill="#F39200" x="18" y="285" width="44" height="78"></rect>
        <rect id="Rectangle-Copy-4" stroke="#FFFFFF" stroke-width="6" fill="#F39200" x="66" y="285" width="98" height="78"></rect>
        <rect id="Rectangle-Copy-5" stroke="#FFFFFF" stroke-width="6" fill="#F39200" x="66" y="262" width="98" height="19"></rect>
        <rect id="Rectangle-Copy-3" stroke="#000000" stroke-width="6" x="14" y="281" width="48" height="82"></rect>
        <rect id="Rectangle-Copy" stroke="#000000" stroke-width="6" x="62" y="259" width="102" height="104"></rect>
        <rect id="Rectangle" stroke="#FFFFFF" stroke-width="6" fill="#F39200" x="18" y="262" width="44" height="19"></rect>
        <rect id="Rectangle" stroke="#000000" stroke-width="6" x="14" y="259" width="48" height="22"></rect>
        <rect id="Rectangle-Copy-2" stroke="#000000" stroke-width="6" x="62" y="259" width="102" height="22"></rect>
        <path d="M115.237379,75.9768323 C112.033711,72.7731643 107.848413,71.1567001 103.654203,71.1352698 C99.4600592,71.1138398 95.2584087,72.6874033 92.0219234,75.8582616 C91.2131972,76.6505891 90.5029491,77.5052107 89.8914542,78.4069531 C89.2964513,77.4975607 88.5997711,76.6352971 87.8011204,75.8366464 C84.6419962,72.6775222 80.4875469,71.1138875 76.3263194,71.1352702 C72.1493109,71.156734 67.9654431,72.7740098 64.7626206,75.9768323 C61.5597981,79.1796548 59.9425223,83.3635225 59.9210585,87.5405311 C59.8996758,91.7017586 61.4633105,95.8562079 64.6224348,99.0153321 C64.959429,99.3523264 65.3077067,99.6712467 66.1104883,100.435589 C66.2622009,100.632114 66.4282292,100.821127 66.6084427,101.00134 L85.748646,120.141543 C86.9347874,121.327685 88.5087047,121.864874 90.2621839,121.840917 C91.7093075,121.812127 93.1473271,121.24557 94.251354,120.141543 L114.334528,99.9718036 C114.692293,99.6712467 115.040571,99.3523264 115.377565,99.0153321 C118.536689,95.8562079 120.100324,91.7017586 120.078941,87.5405311 C120.057478,83.3635225 118.440202,79.1796548 115.237379,75.9768323 Z" id="Combined-Shape" stroke="#020202" stroke-width="6"></path>
        <text id="Donazione" transform="translate(115.750000, 322.566987) rotate(-30.000000) translate(-115.750000, -322.566987) " font-family="BalooThambi-Regular, Baloo Thambi" font-size="20" font-weight="600" fill="#FFFFFF">
            <tspan x="67.15" y="328.066987">Donazione</tspan>
        </text>
    </g>
</svg>