<?xml version="1.0" encoding="UTF-8"?>
<svg width="103px" height="103px" viewBox="0 0 103 103" version="1.1" xmlns="http://www.w3.org/2000/svg" xmlns:xlink="http://www.w3.org/1999/xlink">
    <title>pin copy</title>
    <g id="Page-1" stroke="none" stroke-width="1" fill="none" fill-rule="evenodd">
        <path d="M43.8731561,62.9847898 C43.2068192,60.2129196 40.8079457,57.448623 36.6765358,54.6919001 C36.3526267,50.7961675 36.1220095,48.0337878 35.9846841,46.4047612 C35.5415356,41.1478971 34.4841759,37.7722437 32.2134008,37.7722437 C33.907576,33.8311099 35.1956351,31.0128785 36.0775782,29.3175493 C39.1535134,23.4047837 41.1354646,21.6716903 38.5955363,19.448098 C36.055608,17.2245056 33.1653074,23.7642679 30.4381875,28.340885 C27.1376074,33.8798754 24.2781649,38.4785957 23.8204402,39.91432 C22.5545182,47.0590483 21.1993609,49.5360214 21.3911531,55.3420955 C21.3911531,63.6032302 28.8513017,65.3534576 30.4381875,75.0373897 C30.8255814,76.3907372 29.8101537,80.3919194 27.3919044,87.0409365 L43.8731561,88.1973359 C44.5394931,74.1608421 44.5394931,65.75666 43.8731561,62.9847898 Z" id="Path-2" fill="#FFC4A4"></path>
        <path d="M84.7442529,63.2237118 C84.0489448,60.4998038 81.5457725,57.7833384 77.2347361,55.0743157 C76.896744,51.2459917 76.6560999,48.5314101 76.5128039,46.9305709 C76.050388,41.7646674 74.9470562,38.4474236 72.5775518,38.4474236 C74.3453867,34.5744841 75.6894484,31.8050171 76.6097368,30.1390226 C79.8194083,24.3285668 81.8875314,22.6254615 79.2371714,20.4403444 C76.5868114,18.2552274 73.5708456,24.6818308 70.7251552,29.1792577 C67.2810717,34.6224058 64.2973056,39.1415535 63.8196798,40.5524351 C62.4987177,47.5735367 61.0846405,50.0076503 61.2847715,55.7132607 C61.2847715,63.8314512 69.0692744,65.5513941 70.7251552,75.067763 C71.1293923,76.3976933 70.0698156,80.3296423 67.546425,86.86361 L84.7442529,88 C85.439561,74.2063825 85.439561,65.9476198 84.7442529,63.2237118 Z" id="Path-2-Copy" fill="#FFC4A4" transform="translate(73.265734, 54.000000) scale(-1, 1) translate(-73.265734, -54.000000) "></path>
        <path d="M75.7300453,88.2339127 C76.5230706,74.1974188 76.5230706,65.7932368 75.7300453,63.0213665 C74.9370201,60.2494963 72.0820573,57.4851997 67.165157,54.7284768 C66.7796642,50.8327442 66.5052006,48.0703646 66.341766,46.4413379 C65.8143632,41.1844738 64.9922907,37.8088204 62.2897811,37.8088204 C59.5146393,37.8088204 58.7226294,39.3505071 58.6438834,45.8078546 C58.6214938,47.6438519 58.6214938,51.4658912 58.6438834,57.2739725" id="Path-2-Copy-2" stroke="#020202" stroke-width="2" transform="translate(67.475953, 63.021367) scale(-1, 1) translate(-67.475953, -63.021367) "></path>
        <path d="M71.283885,87.0775132 C74.1619075,80.4284962 75.3703949,76.4273139 74.9093472,75.0739664 C73.0207524,65.3900343 64.142232,63.6398069 64.142232,55.3786723 C63.913975,49.5725982 65.5267837,47.095625 67.0333909,39.9508967 C67.5781412,38.5151724 70.9812394,33.9164521 74.9093472,28.3774617 C78.1549648,23.8008447 81.594788,17.2610823 84.617624,19.4846747 C87.6404599,21.708267 85.2816872,23.4413604 81.6209353,29.354126 C80.5713115,31.0494552 78.8152551,33.9325084 76.3527661,38.0032855" id="Path-3-Copy" stroke="#020202" stroke-width="2" transform="translate(75.060260, 53.057045) scale(-1, 1) translate(-75.060260, -53.057045) "></path>
        <path d="M50.9987909,50.4419856 L43.377414,42.8206087 L43.2863016,42.7237614 C43.2293759,42.6706486 43.1731597,42.6163544 43.1176838,42.5608785 C40.4777951,39.9209898 40.5138208,35.604859 43.1981493,32.9205305 C45.8811425,30.2375374 50.1943148,30.2002129 52.8345563,32.8361274 C55.4751417,30.2002129 59.7883141,30.2375374 62.4713072,32.9205305 C65.1556358,35.604859 65.1916614,39.9209898 62.5517727,42.5608785 C62.4962968,42.6163544 62.4400807,42.6706486 62.3831549,42.7237614 L62.3831549,42.7237614 L62.2920425,42.8206087 L54.6706656,50.4419856 C54.2075129,50.9051384 53.6067328,51.1467833 52.999969,51.1669203 L52.6694876,51.1669203 C52.0627237,51.1467833 51.4619437,50.9051384 50.9987909,50.4419856 Z" id="Combined-Shape-Copy" fill="#FF5254"></path>
        <path d="M45.4167827,88.2339127 C46.209808,74.1974188 46.209808,65.7932368 45.4167827,63.0213665 C44.6237575,60.2494963 41.7687947,57.4851997 36.8518944,54.7284768 C36.4664017,50.8327442 36.191938,48.0703646 36.0285034,46.4413379 C35.5011006,41.1844738 34.6790281,37.8088204 31.9765185,37.8088204 C29.2013767,37.8088204 28.4093668,39.3505071 28.3306208,45.8078546 C28.3082312,47.6438519 28.3082312,51.4658912 28.3306208,57.2739725" id="Path-2" stroke="#020202" stroke-width="2"></path>
        <path d="M63.8961456,32.172056 C62.406422,30.6823324 60.4742298,29.9111818 58.5215537,29.8860955 C56.5822178,29.8611806 54.6251699,30.5724764 53.0617272,32.0368632 C52.8558002,32.2297433 52.6624639,32.4302912 52.4817413,32.6375664 C52.3093024,32.4244413 52.1234781,32.2184229 51.9241464,32.021006 C50.4437061,30.5547877 48.4960102,29.8381955 46.5428171,29.8632835 C44.5818628,29.8884712 42.6153144,30.660596 41.1038544,32.172056 C39.5876049,33.6883056 38.8153839,35.6625363 38.794865,37.6296626 C38.7744374,39.5880326 39.4997211,41.5393895 40.9786223,43.0182906 C41.1409814,43.1806498 41.3090283,43.3339673 41.8620537,43.9017221 L50.2123133,52.2519817 C50.8345611,52.8742295 51.6584747,53.1718964 52.5269821,53.1450162 C53.3419514,53.1716989 54.1656006,52.8740678 54.7876867,52.2519817 L63.4932052,43.5010429 C63.6736614,43.3497226 63.8506636,43.1890047 64.0213777,43.0182906 C65.5002789,41.5393895 66.2255626,39.5880326 66.205135,37.6296626 C66.1846161,35.6625363 65.4123951,33.6883056 63.8961456,32.172056 Z" id="Combined-Shape-Copy-2" stroke="#020202" stroke-width="1.64"></path>
        <path d="M25.8020088,87.0775132 C28.6800313,80.4284962 29.8885187,76.4273139 29.4274709,75.0739664 C27.5388761,65.3900343 18.6603558,63.6398069 18.6603558,55.3786723 C18.4320988,49.5725982 20.0449075,47.095625 21.5515147,39.9508967 C22.096265,38.5151724 25.4993632,33.9164521 29.4274709,28.3774617 C32.6730886,23.8008447 36.1129118,17.2610823 39.1357477,19.4846747 C42.1585837,21.708267 39.799811,23.4413604 36.1390591,29.354126 C35.0894353,31.0494552 33.3333789,33.9325084 30.8708899,38.0032855" id="Path-3" stroke="#020202" stroke-width="2"></path>
    </g>
</svg>