<?xml version="1.0" encoding="UTF-8"?>
<svg width="103px" height="103px" viewBox="0 0 103 103" version="1.1" xmlns="http://www.w3.org/2000/svg" xmlns:xlink="http://www.w3.org/1999/xlink">
    <title>pin copy 2</title>
    <g id="Page-1" stroke="none" stroke-width="1" fill="none" fill-rule="evenodd">
        <circle id="Oval" fill="#FFE060" cx="72.5" cy="25.5" r="6.5"></circle>
        <circle id="Oval" stroke="#020202" cx="72" cy="25" r="7.5"></circle>
        <circle id="Oval" stroke="#020202" fill="#FFE060" cx="72" cy="25" r="5.5"></circle>
        <g id="Group-2" transform="translate(48.000000, 43.000000) rotate(28.000000) translate(-48.000000, -43.000000) translate(29.000000, 25.000000)">
            <path d="M19.52,28.7950067 C26.0590514,28.9754844 31.36,24.2412517 31.36,18.2208021 C31.36,14.3304383 29.6367513,10.4436718 26.1471315,8.83263618 C24.1929771,7.93047139 21.7325465,8.21906527 18.7658397,9.69841783 C16.4288633,8.31876547 13.9976109,8.48048149 11.4720825,10.1835659 C8.84961356,11.9520219 7.68,15.1733742 7.68,18.2208021 C7.68,23.8802964 12.9809486,28.614529 19.52,28.7950067 Z" id="Oval" fill="#FF5254" transform="translate(19.520000, 18.560000) rotate(-24.000000) translate(-19.520000, -18.560000) "></path>
            <path d="M17.370025,8.41447725 C16.0895964,7.68922483 14.7845481,7.35927594 13.4506389,7.44440302 C12.0792576,7.53192148 10.687343,8.05155353 9.26537027,8.9715659 C6.25392142,10.9199649 4.96,14.4854682 4.96,17.8266025 C4.96,20.955397 6.51085948,23.8133835 8.97386614,25.9238579 C11.5165863,28.1026363 15.0320618,29.4916262 18.9096478,29.5943069 C22.7636192,29.6963622 26.2584406,28.419696 28.7861339,26.2537936 C31.2583404,24.1354361 32.8,21.162736 32.8,17.8266025 C32.8,15.5470129 32.256511,13.2660608 31.1484498,11.3514247 C30.1661165,9.654036 28.7363836,8.24673652 26.8446593,7.40881501 C24.599384,6.41429138 21.7801286,6.83570105 18.4053792,8.45027177 C18.2216465,8.53817443 18.0417007,8.62701421 17.8655716,8.71681136 C17.7060427,8.61209432 17.5409416,8.51128676 17.370025,8.41447725 Z" id="Oval" stroke="#020202" stroke-width="2.24" transform="translate(18.880000, 18.240000) rotate(-24.000000) translate(-18.880000, -18.240000) "></path>
            <path d="M12.7830657,9.59965681 C10.2310336,9.61635736 8.24595136,9.02353426 6.82781913,7.8211875 C5.40968691,6.61884075 4.62708053,4.86511158 4.48,2.56 C7.71245914,3.25698649 9.93511723,4.11963303 11.1479743,5.14793963 C12.3608313,6.17624623 12.9058618,7.66015195 12.7830657,9.59965681 Z" id="Path-3" fill="#A8C046"></path>
            <path d="M14.0604605,9.59953202 C11.1158079,9.6223055 8.82532849,8.81391036 7.18902208,7.1743466 C5.55271567,5.53478284 4.64970831,3.14333397 4.48,0 C8.20976055,0.950436124 10.774366,2.12677232 12.1738165,3.52900859 C13.5732669,4.93124486 14.2021482,6.95475267 14.0604605,9.59953202 Z" id="Path-3" stroke="#020202" stroke-width="1.92"></path>
        </g>
        <rect id="Rectangle" stroke="#020202" fill="#FFE060" x="64.5" y="53.5" width="15" height="3" rx="1.5"></rect>
        <rect id="Rectangle-Copy-4" stroke="#020202" fill="#FFE060" x="64.5" y="41.5" width="15" height="3" rx="1.5"></rect>
        <rect id="Rectangle-Copy" stroke="#020202" fill="#FFE060" x="64.5" y="50.5" width="15" height="3" rx="1.5"></rect>
        <rect id="Rectangle-Copy-5" stroke="#020202" fill="#FFE060" x="64.5" y="38.5" width="15" height="3" rx="1.5"></rect>
        <rect id="Rectangle-Copy-2" stroke="#020202" fill="#FFE060" x="64.5" y="47.5" width="15" height="3" rx="1.5"></rect>
        <rect id="Rectangle-Copy-6" stroke="#020202" fill="#FFE060" x="64.5" y="35.5" width="15" height="3" rx="1.5"></rect>
        <rect id="Rectangle-Copy-3" stroke="#020202" fill="#FFE060" x="64.5" y="44.5" width="15" height="3" rx="1.5"></rect>
        <rect id="Rectangle-Copy-7" stroke="#020202" fill="#FFE060" x="64.5" y="32.5" width="15" height="3" rx="1.5"></rect>
        <path d="M26.2296643,43 L47.031222,44.1676811 L54.9933295,53.2069876 L65.6923229,53.8488532 C68.780788,55.86928 69.9672446,57.1325432 69.2516926,57.6386428 C66.3283866,59.7062549 56.8647078,59.5970225 54.7439238,59.4331684 C51.8444675,59.2091532 46.1689725,57.3477148 37.7174387,53.8488532 L23.4535902,50.7350641 L26.2296643,43 Z" id="Path-4" fill="#FFFFFF"></path>
        <g id="Group" transform="translate(53.000000, 57.000000) rotate(-270.000000) translate(-53.000000, -57.000000) translate(39.000000, 22.000000)">
            <path d="M26.1171617,44.1871351 C25.4218536,41.4632271 22.9186813,38.7467617 18.6076449,36.037739 C18.2696528,32.209415 18.0290088,29.4948334 17.8857127,27.8939941 C17.4232968,22.7280907 16.319965,19.4108469 13.9504606,19.4108469 C15.7182955,15.5379074 17.0623572,12.7684404 17.9826457,11.1024458 C21.1923171,5.29199004 23.2604402,3.58888475 20.6100802,1.40376768 C17.9597203,-0.781349385 14.9437544,5.64525406 12.0980641,10.1426809 C8.65398048,15.585829 5.67021443,20.1049768 5.19258859,21.5158584 C3.87162656,28.53696 2.45754931,30.9710735 2.65768029,36.6766839 C2.65768029,44.7948744 10.4421832,46.5148173 12.0980641,56.0311863 C12.5023011,57.3611165 11.4427244,61.2930655 8.91933388,67.8270332 L26.1171617,68.9634233 C26.8124699,55.1698058 26.8124699,46.9110431 26.1171617,44.1871351 Z" id="Path-2-Copy" fill="#FFC4A4" transform="translate(14.638643, 34.963423) scale(-1, 1) translate(-14.638643, -34.963423) "></path>
            <path d="M17.1029541,69.1973359 C17.8959794,55.1608421 17.8959794,46.75666 17.1029541,43.9847898 C16.3099289,41.2129196 13.4549661,38.448623 8.53806586,35.6919001 C8.15257307,31.7961675 7.8781094,29.0337878 7.71467483,27.4047612 C7.18727198,22.1478971 6.36519949,18.7722437 3.66268994,18.7722437 C0.887548094,18.7722437 0.09553818,20.3139304 0.0167921981,26.7712779 C-0.00559739935,28.6072752 -0.00559739935,32.4293145 0.0167921981,38.2373958" id="Path-2-Copy-2" stroke="#020202" stroke-width="2" transform="translate(8.848862, 43.984790) scale(-1, 1) translate(-8.848862, -43.984790) "></path>
            <path d="M12.6567938,68.0409365 C15.5348163,61.3919194 16.7433037,57.3907372 16.282256,56.0373897 C14.3936612,46.3534576 5.51514082,44.6032302 5.51514082,36.3420955 C5.28688385,30.5360214 6.89969251,28.0590483 8.40629973,20.91432 C8.95105008,19.4785957 12.3541483,14.8798754 16.282256,9.34088496 C19.5278736,4.76426792 22.9676969,-1.7754944 25.9905328,0.448097953 C29.0133687,2.6716903 26.654596,4.40478366 22.9938441,10.3175493 C21.9442203,12.0128785 20.1881639,14.8959316 17.7256749,18.9667088" id="Path-3-Copy" stroke="#020202" stroke-width="2" transform="translate(16.433168, 34.020468) scale(-1, 1) translate(-16.433168, -34.020468) "></path>
        </g>
        <text id="E" font-family="BalooThambi-Regular, Baloo Thambi" font-size="11" font-weight="600" fill="#020202">
            <tspan x="68.486" y="28">E</tspan>
        </text>
    </g>
</svg>