<?xml version="1.0" encoding="UTF-8"?>
<svg width="103px" height="103px" viewBox="0 0 103 103" version="1.1" xmlns="http://www.w3.org/2000/svg" xmlns:xlink="http://www.w3.org/1999/xlink">
    <title>pin</title>
    <g id="Page-1" stroke="none" stroke-width="1" fill="none" fill-rule="evenodd">
        <path d="M51,2.5 C41.4730881,2.5 32.8480881,6.36154403 26.604816,12.604816 C20.361544,18.8480881 16.5,27.4730881 16.5,37 C16.5,41.7469564 17.4591598,46.2698681 19.1931728,50.3873744 C21.7358799,57.6092306 24.7161625,64.1697896 28.1315158,70.0690361 C31.8342956,76.4647467 39.0611037,86.4845424 49.8224737,100.121708 C50.2027736,100.603637 50.579706,101.080222 50.9532705,101.551464 C51.3486747,101.095001 51.7444153,100.632142 52.1422482,100.164747 C62.2010344,88.3471738 69.6119709,78.3130723 74.3848339,70.0690361 C78.7537872,62.5226623 81.8082985,55.3107785 83.5587304,48.4380134 C84.8158256,44.8580755 85.5,41.0089365 85.5,37 C85.5,27.4730881 81.638456,18.8480881 75.395184,12.604816 C69.1519119,6.36154403 60.5269119,2.5 51,2.5 Z" id="Combined-Shape" stroke="#020202" stroke-width="3" fill="#4FC1EA"></path>
        <circle id="Oval" stroke="#020202" stroke-width="3" fill="#FFFFFF" cx="51.5" cy="36.5" r="22"></circle>
        <path d="M52.4355906,30.9273538 C55.0754792,28.2874652 59.1209074,28.0527882 61.4713072,30.403188 C63.8217071,32.7535879 63.5870301,36.799016 60.9471415,39.4389047 C60.8880787,39.4979674 60.8283124,39.5558262 60.7678773,39.612479 L60.7678773,39.612479 L60.6874112,39.6986349 L59.8412323,40.5463708 C59.8452199,41.1861731 59.6031335,41.8272243 59.1149731,42.3153847 L54.110346,47.3200118 C53.4924646,47.9378932 52.6296394,48.1615435 51.8344368,47.9909628 C51.0398171,48.1615435 50.1769919,47.9378932 49.5591106,47.3200118 L49.5591106,47.3200118 L44.5544834,42.3153847 C44.066323,41.8272243 43.8242366,41.1861731 43.8282242,40.5463708 L42.9820453,39.6986349 L42.9015792,39.612479 C42.8411441,39.5558262 42.7813778,39.4979674 42.7223151,39.4389047 C40.0824264,36.799016 39.8477494,32.7535879 42.1981493,30.403188 C44.5485491,28.0527882 48.5939773,28.2874652 51.2338659,30.9273538 C51.293646,30.9871339 51.3521927,31.0476348 51.409504,31.1088203 L51.4935962,31.1870841 L51.8340658,31.5271045 L52.1758604,31.1870841 L52.2599525,31.1088203 C52.3172638,31.0476348 52.3758105,30.9871339 52.4355906,30.9273538 Z" id="Combined-Shape" fill="#FF5254"></path>
        <path d="M62.5425922,28.5256094 C61.1490814,27.1320987 59.3420045,26.4095243 57.5151307,26.3860543 C55.6989649,26.3627218 53.8672498,27.0308069 52.4035312,28.4017879 C52.0512704,28.7317305 51.7382397,29.0856019 51.464629,29.458057 C51.209083,29.0752689 50.9117015,28.7123993 50.5723035,28.3762617 C49.1904205,27.0076539 47.3721266,26.339828 45.5492389,26.3632423 C43.7131989,26.3868255 41.8724051,27.1106122 40.4574078,28.5256094 C39.0379319,29.9450853 38.3140496,31.7930638 38.2948378,33.6348778 C38.2757731,35.462596 38.951735,37.2842966 40.3321757,38.6647372 C40.4845651,38.8171266 40.6423208,38.9609983 41.2156071,39.5481687 L49.5658667,47.8984283 C50.0862675,48.4188291 50.7753277,48.6677696 51.5433436,48.645284 C52.2249473,48.6676001 52.9138375,48.4187241 53.4341333,47.8984283 L62.1548777,39.1321817 C62.3301926,38.9859643 62.5021788,38.8303828 62.6678243,38.6647372 C64.048265,37.2842966 64.7242269,35.462596 64.7051622,33.6348778 C64.6859504,31.7930638 63.9620681,29.9450853 62.5425922,28.5256094 Z" id="Combined-Shape" stroke="#020202" stroke-width="2.64000004"></path>
    </g>
</svg>