<?xml version="1.0" encoding="UTF-8"?>
<svg width="401px" height="312px" viewBox="0 0 401 312" version="1.1" xmlns="http://www.w3.org/2000/svg" xmlns:xlink="http://www.w3.org/1999/xlink">
    <title>logo-AC</title>
    <g id="Page-1" stroke="none" stroke-width="1" fill="none" fill-rule="evenodd">
        <path d="M227.449226,127.093579 L227.449226,119.543677 C236.607705,115.595547 245.01906,113.449619 252.683291,113.105894 C260.347522,112.762169 270.142528,114.091579 282.06831,117.094123 C291.391289,118.727159 298.752573,119.543677 304.152163,119.543677 C309.551752,119.543677 316.210726,118.727159 324.129085,117.094123 L324.129085,131.951521 L274.314278,138.356328 L227.449226,127.093579 Z" id="Path-5" stroke="#000000" stroke-width="6" stroke-linejoin="round"></path>
        <path d="M154.49725,20.28994 C159.894161,15.6823435 168.303005,16.2036893 173.753117,21.6538019 C179.462759,27.3634437 179.763051,36.32031 174.423839,41.6595226 C174.227948,41.8554132 174.027188,42.0437125 173.823001,42.2243675 C173.709443,42.3617386 173.588374,42.4949877 173.459792,42.6235695 L173.459792,42.6235695 L158.922925,57.160436 C157.650415,58.4329462 155.920784,58.9697308 154.262617,58.7707899 C152.60494,58.9696463 150.875481,58.432846 149.603071,57.160436 L135.066204,42.6235695 C134.937623,42.4949877 134.816553,42.3617386 134.702995,42.2243675 C134.498808,42.0437125 134.298048,41.8554132 134.102158,41.6595226 C128.762945,36.32031 129.063237,27.3634437 134.772879,21.6538019 C140.302716,16.1239646 148.878479,15.6681456 154.263634,20.4954339 Z" id="Combined-Shape" fill="#FF5254" transform="translate(154.262998, 37.989129) rotate(-19.000000) translate(-154.262998, -37.989129) "></path>
        <path d="M290.327281,45.278045 C295.707467,40.4350537 304.222021,40.8175507 309.670401,46.2659302 C315.291745,51.8872741 315.520457,60.7725607 310.181245,66.1117733 C309.984859,66.3081593 309.783675,66.4970123 309.579121,66.6781732 C309.465935,66.8149949 309.345294,66.9477237 309.217198,67.0758203 L309.217198,67.0758203 L294.680331,81.6126867 C293.448769,82.8442489 291.789031,83.3866734 290.180302,83.2399603 C288.571532,83.3866734 286.911794,82.8442489 285.680232,81.6126867 L271.143365,67.0758203 C271.015269,66.9477237 270.894628,66.8149949 270.781442,66.6781732 C270.576888,66.4970123 270.375704,66.3081593 270.179318,66.1117733 C264.840106,60.7725607 265.068818,51.8872741 270.690162,46.2659302 C276.188593,40.7675 284.80979,40.4284537 290.180756,45.4128363 Z" id="Combined-Shape-Copy-3" fill="#FF5254" transform="translate(290.180282, 62.579504) rotate(40.000000) translate(-290.180282, -62.579504) "></path>
        <path d="M177.237379,17.9768323 C174.033711,14.7731643 169.848413,13.1567001 165.654203,13.1352698 C161.460059,13.1138398 157.258409,14.6874033 154.021923,17.8582616 C153.213197,18.6505891 152.502949,19.5052107 151.891454,20.4069531 C151.296451,19.4975607 150.599771,18.6352971 149.80112,17.8366464 C146.641996,14.6775222 142.487547,13.1138875 138.326319,13.1352702 C134.149311,13.156734 129.965443,14.7740098 126.762621,17.9768323 C123.559798,21.1796548 121.942522,25.3635225 121.921059,29.5405311 C121.899676,33.7017586 123.463311,37.8562079 126.622435,41.0153321 C126.959429,41.3523264 127.307707,41.6712467 128.110488,42.4355885 C128.262201,42.632114 128.428229,42.8211265 128.608443,43.0013401 L147.748646,62.1415434 C148.934787,63.3276848 150.508705,63.8648742 152.262184,63.8409173 C153.709308,63.8121269 155.147327,63.2455702 156.251354,62.1415434 L176.334528,41.9718036 C176.692293,41.6712467 177.040571,41.3523264 177.377565,41.0153321 C180.536689,37.8562079 182.100324,33.7017586 182.078941,29.5405311 C182.057478,25.3635225 180.440202,21.1796548 177.237379,17.9768323 Z" id="Combined-Shape" stroke="#020202" stroke-width="6" transform="translate(152.000000, 38.500000) rotate(-19.000000) translate(-152.000000, -38.500000) "></path>
        <path d="M313.237379,41.9768323 C310.033711,38.7731643 305.848413,37.1567001 301.654203,37.1352698 C297.460059,37.1138398 293.258409,38.6874033 290.021923,41.8582616 C289.213197,42.6505891 288.502949,43.5052107 287.891454,44.4069531 C287.296451,43.4975607 286.599771,42.6352971 285.80112,41.8366464 C282.641996,38.6775222 278.487547,37.1138875 274.326319,37.1352702 C270.149311,37.156734 265.965443,38.7740098 262.762621,41.9768323 C259.559798,45.1796548 257.942522,49.3635225 257.921059,53.5405311 C257.899676,57.7017586 259.463311,61.8562079 262.622435,65.0153321 C262.959429,65.3523264 263.307707,65.6712468 264.110488,66.4355887 C264.262201,66.6321143 264.428229,66.8211268 264.608443,67.0013403 L283.748646,86.1415431 C284.934787,87.3276846 286.508705,87.864874 288.262184,87.8409171 C289.709308,87.8121268 291.147327,87.2455701 292.251354,86.1415431 L312.334528,65.9718039 C312.692293,65.6712468 313.040571,65.3523264 313.377565,65.0153321 C316.536689,61.8562079 318.100324,57.7017586 318.078941,53.5405311 C318.057478,49.3635225 316.440202,45.1796548 313.237379,41.9768323 Z" id="Combined-Shape-Copy-2" stroke="#020202" stroke-width="6" transform="translate(288.000000, 62.500000) rotate(43.000000) translate(-288.000000, -62.500000) "></path>
        <path d="M220,152.688892 C219.149507,148.501037 219.149507,144.790381 220,141.556925 C220.850493,138.323469 222.835289,134.48821 225.954388,130.051148 C243.433826,123.918768 260.006982,123.317099 275.673857,128.246141 C291.340733,133.175183 307.922082,133.776852 325.417906,130.051148 C331.424889,132.149634 335.359838,135.984893 337.222753,141.556925 C339.085669,147.128957 340.05685,151.823839 340.136297,155.641572 L220,155.641572 L220,152.688892 Z" id="Path-4" stroke="#000000" stroke-width="6" fill="#FFFFFF"></path>
        <path d="M235.932533,155.546279 C235.171996,152.134868 235.171996,149.112182 235.932533,146.47822 C236.693071,143.844259 238.467937,140.720072 241.257131,137.105658 C256.887786,132.110244 271.708015,131.620127 285.717821,135.635306 C299.727626,139.650485 314.555182,140.140602 330.200489,137.105658 C335.572119,138.815077 339.090873,141.939264 340.756749,146.47822 C342.422626,151.017177 343.291087,154.84161 343.36213,157.951521 L235.932533,157.951521 L235.932533,155.546279 Z" id="Path-4" fill="#AAC24A"></path>
        <path d="M220,152.688892 C219.149507,148.501037 219.149507,144.790381 220,141.556925 C220.850493,138.323469 222.835289,134.48821 225.954388,130.051148 C243.433826,123.918768 260.006982,123.317099 275.673857,128.246141 C291.340733,133.175183 307.922082,133.776852 325.417906,130.051148 C331.424889,132.149634 335.359838,135.984893 337.222753,141.556925 C339.085669,147.128957 340.05685,151.823839 340.136297,155.641572 L220,155.641572 L220,152.688892 Z" id="Path-4" stroke="#000000" stroke-width="6"></path>
        <path d="M207.661009,66.2373593 L203.607643,77.373836 C196.063739,76.4881286 188.558517,78.3516368 182.379057,82.386518 C176.940829,85.9374113 172.5307,91.1723907 170.025362,97.6990189 L158.557588,127.573593 C155.39085,135.823228 155.867732,144.575446 159.198707,152.05694 C162.529683,159.538433 168.714752,165.749202 176.964387,168.915941 L185.366611,172.141252 C193.616247,175.307991 202.368465,174.831109 209.849958,171.500133 C217.331452,168.169158 223.542221,161.984089 226.708959,153.734453 L238.176734,123.859879 C240.678228,117.343263 240.9069,110.51294 239.249864,104.243134 C237.373514,97.1435019 233.082566,90.7614422 226.938358,86.3682996 L231.153323,74.7878622 L207.661009,66.2373593 Z" id="Combined-Shape" stroke="#020202" stroke-width="6" fill="#FFFFFF"></path>
        <rect id="Rectangle-Copy-4" fill="#3FB5FB" transform="translate(222.340295, 67.412657) rotate(-340.000000) translate(-222.340295, -67.412657) " x="203.340295" y="60.4126571" width="38" height="14" rx="2"></rect>
        <rect id="Rectangle" fill="#FFFFFF" x="140" y="118" width="23" height="15"></rect>
        <path d="M126.913545,175.577903 C147.348081,176.133083 163.913545,161.56977 163.913545,143.049832 C163.913545,131.082405 158.528393,119.126043 147.623331,114.17022 C141.516599,111.395006 133.827753,112.282771 124.556794,116.833514 C117.253743,112.589466 109.656079,113.086932 101.763803,118.325912 C93.5685878,123.765987 89.9135455,133.67542 89.9135455,143.049832 C89.9135455,160.459409 106.47901,175.022723 126.913545,175.577903 Z" id="Oval" fill="#FF5254" transform="translate(126.913545, 144.093263) rotate(-24.000000) translate(-126.913545, -144.093263) "></path>
        <path d="M120.802759,112.803352 C116.804011,110.526707 112.728476,109.490417 108.562557,109.75765 C104.278706,110.032448 99.931084,111.66451 95.4893534,114.553142 C86.071924,120.677667 82.028164,131.885903 82.028164,142.387735 C82.028164,152.222293 86.8754488,161.207513 94.5782569,167.841906 C102.522653,174.684378 113.506126,179.047385 125.621292,179.369859 C137.662314,179.690359 148.580887,175.68009 156.478071,168.878282 C164.209419,162.219307 169.028164,152.873923 169.028164,142.387735 C169.028164,135.221635 167.32855,128.051283 163.863166,122.03246 C160.792756,116.699646 156.324661,112.277393 150.411611,109.644734 C143.397927,106.52204 134.591569,107.847203 124.051314,112.915993 C123.474894,113.193192 122.910457,113.473331 122.3581,113.756474 C121.857173,113.426783 121.339212,113.108776 120.802759,112.803352 Z" id="Oval" stroke="#020202" stroke-width="7" transform="translate(125.528164, 143.686276) rotate(-24.000000) translate(-125.528164, -143.686276) "></path>
        <rect id="Rectangle-Copy-4" stroke="#020202" stroke-width="6" transform="translate(222.342020, 63.560307) rotate(-340.000000) translate(-222.342020, -63.560307) " x="199.34202" y="54.0603074" width="46" height="19" rx="9.5"></rect>
        <path d="M105.4571,115.817658 C97.4819996,115.869847 91.2786177,114.017275 86.8469545,110.259941 C82.4152913,106.502608 79.9696464,101.022204 79.5100197,93.8187303 C89.6114546,95.9968131 96.5572611,98.6925836 100.347439,101.906042 C104.137618,105.1195 105.840838,109.756705 105.4571,115.817658 Z" id="Path-3" fill="#A8C046"></path>
        <path d="M109.095098,115.817268 C100.001822,115.888435 92.9286737,113.3622 87.8756542,108.238563 C82.8226347,103.114927 80.0340899,95.641649 79.5100197,85.8187303 C91.0277603,88.7888432 98.947427,92.4648938 103.26902,96.8468822 C107.590613,101.228871 109.532639,107.552332 109.095098,115.817268 Z" id="Path-3" stroke="#020202" stroke-width="6"></path>
        <g id="box" transform="translate(0.000000, 152.000000)">
            <rect id="Rectangle" stroke="#040205" stroke-width="7" fill="#FFFFFF" x="147.5" y="3.5" width="220" height="153"></rect>
            <rect id="Rectangle-Copy" stroke="#040205" stroke-width="7" fill="#FFFFFF" x="42.5" y="3.5" width="106" height="153"></rect>
            <path d="M50,148 L50,48.5410013 L115.101262,48.5410013 L141,21 L141,148 M50,147.5 L141,147.5" id="Combined-Shape" fill="#F39200"></path>
            <path d="M143.790093,3.5 L40.8392548,3.5 L8.20990673,37.5 L111.160745,37.5 L143.790093,3.5 Z" id="Rectangle-Copy-2" stroke="#040205" stroke-width="7" fill="#FFFFFF"></path>
            <path d="M146.594458,4.74079847 L178.916918,37.5 L392.804201,37.5 C393.660273,37.5 394.795781,36.9776727 395.774968,36.2592015 L363.452509,3.5 L149.565226,3.5 C148.709154,3.5 147.573645,4.02232729 146.594458,4.74079847 Z" id="Rectangle-Copy-3" stroke="#040205" stroke-width="7" fill="#FFFFFF"></path>
            <path d="M364.016249,147.094643 L364.016249,50 L177.009907,50 L155,27.1020934 L155,147.094643 M364.016249,151.342722 L155,151.38975" id="Combined-Shape-Copy" fill="#F39200"></path>
        </g>
        <text id="aiutiamo" font-family="BalooThambi-Regular, Baloo Thambi" font-size="43" font-weight="600" fill="#FFFFFF">
            <tspan x="172.081" y="243">aiutiamo</tspan>
        </text>
        <text id="CUMBUCO" font-family="BalooThambi-Regular, Baloo Thambi" font-size="41" font-weight="600" fill="#FFFFFF">
            <tspan x="166.1305" y="282">CUMBUCO</tspan>
        </text>
    </g>
</svg>